<mxfile host="app.diagrams.net" agent="Mozilla/5.0 (Windows NT 10.0; Win64; x64) AppleWebKit/537.36 (KHTML, like Gecko) Chrome/131.0.0.0 Safari/537.36 Edg/131.0.0.0" version="26.0.1">
  <diagram name="Trang-1" id="-CAOF1WwF_2kqHNmFxZV">
    <mxGraphModel dx="1042" dy="565" grid="1" gridSize="10" guides="1" tooltips="1" connect="1" arrows="1" fold="1" page="1" pageScale="1" pageWidth="827" pageHeight="1169" math="0" shadow="0">
      <root>
        <mxCell id="0" />
        <mxCell id="1" parent="0" />
        <mxCell id="ivHFTO1iDbek3n36oCr3-3" value="" style="edgeStyle=orthogonalEdgeStyle;rounded=0;orthogonalLoop=1;jettySize=auto;html=1;" edge="1" parent="1" source="ivHFTO1iDbek3n36oCr3-1" target="ivHFTO1iDbek3n36oCr3-2">
          <mxGeometry relative="1" as="geometry" />
        </mxCell>
        <mxCell id="ivHFTO1iDbek3n36oCr3-1" value="Bắt đầu" style="ellipse;whiteSpace=wrap;html=1;fillColor=#dae8fc;strokeColor=#6c8ebf;" vertex="1" parent="1">
          <mxGeometry x="340" y="260" width="140" height="80" as="geometry" />
        </mxCell>
        <mxCell id="ivHFTO1iDbek3n36oCr3-5" value="" style="edgeStyle=orthogonalEdgeStyle;rounded=0;orthogonalLoop=1;jettySize=auto;html=1;" edge="1" parent="1" source="ivHFTO1iDbek3n36oCr3-2" target="ivHFTO1iDbek3n36oCr3-4">
          <mxGeometry relative="1" as="geometry" />
        </mxCell>
        <mxCell id="ivHFTO1iDbek3n36oCr3-2" value="Gửi bản tin yêu cầu&lt;div&gt;(Gateway gửi bản tin yêu cầu tới từng node xác nhận bắt đầu nhận dữ liệu từ node đó&lt;/div&gt;" style="whiteSpace=wrap;html=1;" vertex="1" parent="1">
          <mxGeometry x="270" y="380" width="280" height="60" as="geometry" />
        </mxCell>
        <mxCell id="ivHFTO1iDbek3n36oCr3-7" value="" style="edgeStyle=orthogonalEdgeStyle;rounded=0;orthogonalLoop=1;jettySize=auto;html=1;" edge="1" parent="1" source="ivHFTO1iDbek3n36oCr3-4" target="ivHFTO1iDbek3n36oCr3-6">
          <mxGeometry relative="1" as="geometry" />
        </mxCell>
        <mxCell id="ivHFTO1iDbek3n36oCr3-4" value="Thu thập dữ liệu từng node" style="whiteSpace=wrap;html=1;" vertex="1" parent="1">
          <mxGeometry x="330" y="470" width="160" height="60" as="geometry" />
        </mxCell>
        <mxCell id="ivHFTO1iDbek3n36oCr3-9" value="" style="edgeStyle=orthogonalEdgeStyle;rounded=0;orthogonalLoop=1;jettySize=auto;html=1;" edge="1" parent="1" source="ivHFTO1iDbek3n36oCr3-6" target="ivHFTO1iDbek3n36oCr3-8">
          <mxGeometry relative="1" as="geometry" />
        </mxCell>
        <mxCell id="ivHFTO1iDbek3n36oCr3-6" value="Xử lý và phân loại dữ liệu" style="whiteSpace=wrap;html=1;" vertex="1" parent="1">
          <mxGeometry x="335" y="555" width="150" height="60" as="geometry" />
        </mxCell>
        <mxCell id="ivHFTO1iDbek3n36oCr3-11" value="" style="edgeStyle=orthogonalEdgeStyle;rounded=0;orthogonalLoop=1;jettySize=auto;html=1;" edge="1" parent="1" source="ivHFTO1iDbek3n36oCr3-8" target="ivHFTO1iDbek3n36oCr3-10">
          <mxGeometry relative="1" as="geometry" />
        </mxCell>
        <mxCell id="ivHFTO1iDbek3n36oCr3-12" value="Có" style="edgeLabel;html=1;align=center;verticalAlign=middle;resizable=0;points=[];" vertex="1" connectable="0" parent="ivHFTO1iDbek3n36oCr3-11">
          <mxGeometry x="0.0582" y="1" relative="1" as="geometry">
            <mxPoint x="-15" as="offset" />
          </mxGeometry>
        </mxCell>
        <mxCell id="ivHFTO1iDbek3n36oCr3-14" value="" style="edgeStyle=orthogonalEdgeStyle;rounded=0;orthogonalLoop=1;jettySize=auto;html=1;" edge="1" parent="1" source="ivHFTO1iDbek3n36oCr3-8" target="ivHFTO1iDbek3n36oCr3-13">
          <mxGeometry relative="1" as="geometry" />
        </mxCell>
        <mxCell id="ivHFTO1iDbek3n36oCr3-15" value="Không" style="edgeLabel;html=1;align=center;verticalAlign=middle;resizable=0;points=[];" vertex="1" connectable="0" parent="ivHFTO1iDbek3n36oCr3-14">
          <mxGeometry x="-0.2945" y="3" relative="1" as="geometry">
            <mxPoint x="37" y="3" as="offset" />
          </mxGeometry>
        </mxCell>
        <mxCell id="ivHFTO1iDbek3n36oCr3-8" value="Vượt ngưỡng cảnh báo?" style="rhombus;whiteSpace=wrap;html=1;" vertex="1" parent="1">
          <mxGeometry x="320" y="650" width="180" height="80" as="geometry" />
        </mxCell>
        <mxCell id="ivHFTO1iDbek3n36oCr3-17" value="" style="edgeStyle=orthogonalEdgeStyle;rounded=0;orthogonalLoop=1;jettySize=auto;html=1;" edge="1" parent="1" source="ivHFTO1iDbek3n36oCr3-10" target="ivHFTO1iDbek3n36oCr3-16">
          <mxGeometry relative="1" as="geometry" />
        </mxCell>
        <mxCell id="ivHFTO1iDbek3n36oCr3-10" value="Kích hoạt còi báo và đỏi màu đèn led hiển thị" style="whiteSpace=wrap;html=1;" vertex="1" parent="1">
          <mxGeometry x="244" y="785" width="120" height="60" as="geometry" />
        </mxCell>
        <mxCell id="ivHFTO1iDbek3n36oCr3-18" style="edgeStyle=orthogonalEdgeStyle;rounded=0;orthogonalLoop=1;jettySize=auto;html=1;entryX=0.5;entryY=0;entryDx=0;entryDy=0;" edge="1" parent="1" source="ivHFTO1iDbek3n36oCr3-13" target="ivHFTO1iDbek3n36oCr3-16">
          <mxGeometry relative="1" as="geometry" />
        </mxCell>
        <mxCell id="ivHFTO1iDbek3n36oCr3-13" value="Giữ nguyên trạng thái an toàn" style="whiteSpace=wrap;html=1;" vertex="1" parent="1">
          <mxGeometry x="464" y="785" width="120" height="60" as="geometry" />
        </mxCell>
        <mxCell id="ivHFTO1iDbek3n36oCr3-20" value="" style="edgeStyle=orthogonalEdgeStyle;rounded=0;orthogonalLoop=1;jettySize=auto;html=1;" edge="1" parent="1" source="ivHFTO1iDbek3n36oCr3-16" target="ivHFTO1iDbek3n36oCr3-19">
          <mxGeometry relative="1" as="geometry" />
        </mxCell>
        <mxCell id="ivHFTO1iDbek3n36oCr3-16" value="Cập nhật dữ liệu lên Firebase" style="whiteSpace=wrap;html=1;" vertex="1" parent="1">
          <mxGeometry x="350" y="890" width="120" height="60" as="geometry" />
        </mxCell>
        <mxCell id="ivHFTO1iDbek3n36oCr3-22" value="" style="edgeStyle=orthogonalEdgeStyle;rounded=0;orthogonalLoop=1;jettySize=auto;html=1;" edge="1" parent="1" source="ivHFTO1iDbek3n36oCr3-19" target="ivHFTO1iDbek3n36oCr3-21">
          <mxGeometry relative="1" as="geometry" />
        </mxCell>
        <mxCell id="ivHFTO1iDbek3n36oCr3-19" value="Hiển thị các thông số lên màn hình oled" style="whiteSpace=wrap;html=1;" vertex="1" parent="1">
          <mxGeometry x="350" y="980" width="120" height="60" as="geometry" />
        </mxCell>
        <mxCell id="ivHFTO1iDbek3n36oCr3-21" value="Lặp lại quá trình" style="ellipse;whiteSpace=wrap;html=1;fillColor=#d5e8d4;strokeColor=#82b366;" vertex="1" parent="1">
          <mxGeometry x="335" y="1070" width="150" height="80" as="geometry" />
        </mxCell>
      </root>
    </mxGraphModel>
  </diagram>
</mxfile>
